<?xml version="1.0" encoding="utf-8"?>
<!-- Generator: Adobe Illustrator 25.3.1, SVG Export Plug-In . SVG Version: 6.00 Build 0)  -->
<svg version="1.1" id="Layer_1" xmlns="http://www.w3.org/2000/svg" xmlns:xlink="http://www.w3.org/1999/xlink" x="0px" y="0px"
	 viewBox="0 0 500 500" style="enable-background:new 0 0 500 500;" xml:space="preserve">
<style type="text/css">
	.st0{fill:#FFFFFF;}
	.st1{fill:#3FACE3;}
	.st2{fill:#1D8CCC;}
	.st3{fill:#E1DFE2;}
	.st4{fill:#117BB8;}
	.st5{fill:#B4B2B7;}
</style>
<g>
	<path class="st0" d="M151.6,216.1c-0.2-3.4,1.3-5.9,3.6-8.3c13-13.2,26-26.5,38.9-39.9c5.1-5.3,9.2-11.2,6.7-19
		c-3.1-9.7-6.7-19.3-9-29.3c-3.7-16.4-6.8-32.9-7.5-49.8c-0.3-6.9,1.1-14.9-5.6-20.3c-3.3-5.7-7.8-10-14.8-10
		c-33.2-0.1-66.4-0.1-99.7,0c-8.4,0-15.1,3.6-18.3,11.9c-1.2,0.8-1,1.9-0.8,3c-0.1,0.9-0.2,1.9-0.2,2.8C42,59.9,42,63.4,42,66.8
		c-0.4,17.2,0.8,34.5,3.2,51.5c3.2,22.3,7.7,44.5,14.8,66.1c7.3,22.2,16.1,43.7,26.8,64.5c8.2,16,17.5,31.5,28,46.1
		c17.6,24.3,37.6,46.6,60.2,66.6c14.2,12.5,29,24.1,44.8,34.4c18.6,12.2,38.2,22.6,58.6,31.5c25.7,11.3,52.2,19.8,79.8,25.1
		c26,5.1,52.2,7.5,78.8,8.1c10.6,0.2,21.2-10.8,21.2-21.2c-0.1-33.2,0-66.5-0.1-99.7c0-3.2-0.1-6.6-2.8-9.1
		c-0.9-10.3-6.8-15.6-17.1-16c-8.9-0.4-17.9-0.8-26.7-2.1c-19-2.8-37.7-6.9-55.8-13.5c-7.1-2.6-13-0.8-18.1,4.3
		c-13.9,13.8-27.7,27.6-41.6,41.4c-1.6,1.6-2.9,3.7-5.5,4c-2.2-1.1-4.5-2.2-6.7-3.3c-10.4-5.9-20.9-11.4-30.9-17.9
		c-28.1-18.5-52.5-40.9-73.2-67.5c-9.9-12.7-18.5-26.2-26.5-40.2C152.6,218.5,152.1,217.3,151.6,216.1z"/>
	<path class="st1" d="M290.4,348.7c2.6-0.3,3.9-2.4,5.5-4c13.9-13.8,27.8-27.6,41.6-41.4c5.2-5.1,11.1-6.9,18.1-4.3
		c18.1,6.6,36.8,10.7,55.8,13.5c8.8,1.3,17.8,1.7,26.7,2.1c10.3,0.5,16.2,5.8,17.1,16c-0.1,1.8-0.2,3.6-0.2,5.5
		c0,33.4,0,66.7,0,100.1c-0.4,0.7-0.9,1.4-1.2,2.1c-3.4,7.1-8.3,11.6-16.9,11.1c-8.4-0.5-16.9-0.4-25.3-0.9
		c-15.4-1-30.7-2.7-45.8-5.5c-28.2-5.2-55.7-13.2-82.1-24.6c-14.8-6.4-29.3-13.1-43-21.6c1.6-1.7,3.3-3.4,4.9-5.1
		c0.6-0.3,1.3-0.4,1.8-0.8C261.7,376.8,276,362.7,290.4,348.7z"/>
	<path class="st1" d="M45.9,51.4c3.3-8.4,10-11.9,18.3-11.9c33.2-0.2,66.4-0.1,99.7,0c7,0,11.5,4.3,14.8,10
		c-0.1,5.8,0.3,11.6,0.7,17.4c1.9,24.6,6.9,48.5,15.5,71.7c1.7,4.6,2.1,9,0.4,13.5c-17.5,16.7-33.7,34.7-50.7,51.9
		c-1.9,1.8-3.9,3.6-5.7,5.5c-13.5,14.8-27.9,28.7-42.1,42.8c-1.4-2.2-2.9-4.4-4.2-6.7c-8.5-15.4-15.8-31.4-22-47.9
		c-12.7-33.5-20.8-67.9-24-103.6c-0.6-6.2,0.2-12.6-1.6-18.7c-0.1-6-0.2-12-0.3-17.9c0.1-0.9,0.2-1.9,0.2-2.8
		C46,53.6,46,52.5,45.9,51.4z"/>
	<path class="st2" d="M245.5,391.6c-1.6,1.7-3.3,3.4-4.9,5.1c-0.6-0.2-1.3-0.4-1.8-0.7c-26.3-15.3-50.5-33.5-72.6-54.5
		c-25.5-24.2-47.2-51.5-65.4-81.6c0.1-2.4,2.2-2.5,3.6-2.7c10.8-1.8,18.9-7.9,26.3-15.6c7.2-7.5,14.2-15.3,22.4-21.8
		c8.1,13.9,16.7,27.5,26.5,40.2c20.7,26.5,45.1,49,73.2,67.5c10,6.6,20.5,12.1,30.9,17.9c-11,9.8-21.2,20.4-31.4,31.1
		C248.5,380.5,245.9,385.8,245.5,391.6z"/>
	<path class="st3" d="M44.8,57.3c0.1,6,0.2,12,0.3,17.9c-0.8,15.5,1.1,30.8,3.3,46c3.5,24.1,9.1,47.7,16.9,70.8
		c8,23.4,18.1,45.9,30.1,67.4c8.5,15.2,18.3,29.5,28.7,43.5c17.6,23.5,37.7,44.5,60.1,63.3c26.6,22.4,55.8,40.7,87.5,55.3
		c23.4,10.8,47.6,19.1,72.6,25.2c31.2,7.6,62.8,11.3,95,10.5c6-0.1,9.9-2.9,13-7.7c2.7-4.2,2.9-8.7,2.6-13.4c0-33.4,0-66.7,0-100.1
		c0-1.8,0.1-3.6,0.2-5.5c2.8,2.4,2.8,5.8,2.9,9.1c0.1,33.2,0,66.5,0.1,99.7c0,10.5-10.6,21.5-21.2,21.2c-26.5-0.6-52.7-3-78.8-8.1
		c-27.6-5.4-54.1-13.9-79.8-25.1c-20.4-8.9-40-19.4-58.6-31.5c-15.8-10.3-30.6-21.9-44.8-34.4c-22.6-20-42.6-42.3-60.2-66.6
		c-10.5-14.6-19.8-30-28-46.1c-10.7-20.8-19.5-42.2-26.8-64.5c-7.1-21.6-11.5-43.7-14.8-66.1c-2.5-17-3.6-34.2-3.2-51.5
		C42,63.4,42,59.9,44.8,57.3z"/>
	<path class="st4" d="M153.1,219.8c-8.2,6.5-15.1,14.3-22.4,21.8c-7.4,7.7-15.5,13.8-26.3,15.6c-1.4,0.2-3.5,0.3-3.6,2.7
		c-1.8-2.3-3.3-4.8-4-7.7c14.2-14.1,28.6-28,42.1-42.8c1.8-2,3.8-3.7,5.7-5.5c1,1.7,2.1,3.4,3.1,5.1c1,2.5,2.1,5,3.8,7.1
		C152.1,217.3,152.6,218.5,153.1,219.8z"/>
	<path class="st3" d="M151.6,216.1c-1.8-2.1-2.9-4.6-3.8-7.1c0.6-0.8,1.1-1.7,1.8-2.4c13.1-13.4,26.2-26.8,39.2-40.3
		c2.1-2.1,4.2-4.3,5.7-6.8c1.3-2.2,3.6-4.7,0.9-7.5c1.7-4.6,1.3-8.9-0.4-13.5c-8.6-23.1-13.6-47-15.5-71.7
		c-0.4-5.8-0.8-11.6-0.7-17.4c6.7,5.4,5.3,13.4,5.6,20.3c0.8,16.9,3.8,33.4,7.5,49.8c2.3,10,5.9,19.5,9,29.3
		c2.5,7.9-1.6,13.8-6.7,19c-12.9,13.4-25.9,26.7-38.9,39.9C152.9,210.1,151.4,212.6,151.6,216.1z"/>
	<path class="st4" d="M245.5,391.6c0.4-5.9,3-11.1,6.8-15.1c10.1-10.7,20.4-21.3,31.4-31.1c2.2,1.1,4.5,2.2,6.7,3.3
		c-14.3,14.1-28.7,28.1-43,42.2C246.9,391.2,246.1,391.4,245.5,391.6z"/>
	<path class="st3" d="M45.9,51.4c0.1,1.1,0.1,2.2-0.8,3C44.9,53.3,44.7,52.2,45.9,51.4z"/>
	<path class="st5" d="M96.9,252.2c0.7,2.9,2.2,5.4,4,7.7c18.2,30.1,39.9,57.4,65.4,81.6c22,21,46.2,39.2,72.6,54.5
		c0.6,0.3,1.2,0.5,1.8,0.7c13.7,8.5,28.3,15.3,43,21.6c26.4,11.4,53.9,19.4,82.1,24.6c15.1,2.8,30.4,4.5,45.8,5.5
		c8.5,0.5,16.9,0.5,25.3,0.9c8.6,0.5,13.5-4,16.9-11.1c0.3-0.7,0.8-1.4,1.2-2.1c0.3,4.7,0.1,9.2-2.6,13.4c-3.1,4.8-7,7.6-13,7.7
		c-32.1,0.7-63.8-3-95-10.5c-25-6.1-49.2-14.4-72.6-25.2c-31.7-14.6-60.9-32.9-87.5-55.3c-22.3-18.8-42.5-39.8-60.1-63.3
		c-10.5-14-20.2-28.3-28.7-43.5c-12.1-21.5-22.1-44-30.1-67.4c-7.9-23.1-13.4-46.7-16.9-70.8c-2.2-15.2-4.1-30.5-3.3-46
		c1.8,6.1,1,12.5,1.6,18.7c3.2,35.7,11.2,70.2,24,103.6c6.3,16.5,13.5,32.5,22,47.9C94,247.7,95.5,249.9,96.9,252.2z"/>
	<path class="st5" d="M195.3,152c2.7,2.8,0.5,5.3-0.9,7.5c-1.5,2.5-3.6,4.7-5.7,6.8c-13,13.5-26.1,26.8-39.2,40.3
		c-0.7,0.7-1.2,1.6-1.8,2.4c-1-1.7-2.1-3.4-3.1-5.1C161.7,186.7,177.9,168.7,195.3,152z"/>
</g>
</svg>
