<svg id="Layer_1" data-name="Layer 1" xmlns="http://www.w3.org/2000/svg" viewBox="0 0 800 800"><defs><style>.cls-1{fill:#fff;}.cls-1,.cls-2,.cls-3{fill-rule:evenodd;}.cls-2{fill:#dc052b;}.cls-3{fill:#004288;}</style></defs><path class="cls-1" d="M-473.19,254.46H-86.31L-473.19,61V28.49l452,226H108.93L-473.19-36.6h195.25L254.47,229.6V-36.6h58.21V312.68H-473.19V254.46ZM545.53-36.6V229.6L1077.94-36.6H1143L560.89,254.46H691.06L1273.19-36.6V61L886.31,254.46h386.88v58.22H487.31V-36.6Zm727.66,582.12H886.31L1273.19,739V771.5l-451.95-226H691.07L1273.19,836.6H1077.94L545.53,570.39V836.6H487.31V487.32h785.88v58.2ZM254.47,836.6V570.39L-277.94,836.6H-343L239.11,545.52H108.94L-473.19,836.6V739L-86.31,545.52H-473.19v-58.2H312.68V836.6Z"/><path class="cls-2" d="M239.11,545.52-343,836.6H-473.19L108.94,545.52ZM487.31-36.6V312.68h785.88V487.32H487.31V836.6H312.68V487.32H-473.19V312.68H312.68V-36.6Zm-960.5,65.08,452,226H108.94L-473.19-36.6V28.48ZM1273.19-36.6,691.06,254.46H560.89L1143-36.6ZM691.06,545.52,1273.19,836.6V771.5l-451.95-226Z"/><path class="cls-3" d="M1273.19,545.52V739L886.31,545.52ZM-277.94-36.6H254.47V229.6L-277.94-36.6ZM-473.19,739V545.52H-86.31L-473.19,739Zm0-484.51V61L-86.31,254.46ZM254.47,836.6H-277.94L254.47,570.39V836.6Zm823.47,0H545.53V570.39L1077.94,836.6ZM545.53-36.6h532.41L545.53,229.6V-36.6ZM1273.19,61V254.46H886.31L1273.19,61Z"/></svg>