<svg id="Layer_1" data-name="Layer 1" xmlns="http://www.w3.org/2000/svg" viewBox="0 0 800 800"><defs><style>.cls-1,.cls-5{fill:#fefefe;}.cls-2{fill:#40a041;}.cls-3,.cls-4{fill:#cb282d;}.cls-4,.cls-5{fill-rule:evenodd;}</style></defs><rect class="cls-1" x="-335.22" y="-28.79" width="1470.44" height="857.57"/><rect class="cls-2" x="-335.22" y="-28.79" width="1470.44" height="286.54"/><rect class="cls-3" x="-335.22" y="542.4" width="1470.44" height="286.38"/><polygon class="cls-4" points="399.84 296.75 384.37 309.38 387.21 512.09 399.84 526.77 412.63 512.09 415.63 309.38 399.84 296.75"/><path class="cls-4" d="M431.1,275.28a21.33,21.33,0,0,1-29.52,7c-.47-.32-1.11-.64-1.58-1A21.91,21.91,0,0,1,369.85,277a6.31,6.31,0,0,0-1.11-1.74c-2.53,10,3.47,20.21,13.26,22.58a18.29,18.29,0,0,0,18-5.06,18.59,18.59,0,0,0,26.05.48,18.39,18.39,0,0,0,5.05-18Z"/><path class="cls-4" d="M439,303.54C480.36,359.9,468,439.15,411.68,480.83A127.1,127.1,0,0,1,322,504.2,117.41,117.41,0,0,0,439,303.54Z"/><path class="cls-4" d="M360.85,303.54c-41.37,56.36-29.05,135.61,27.31,177.29a127.1,127.1,0,0,0,89.67,23.37c-60.15,24.31-128.51-5.06-152.66-65.21a117.51,117.51,0,0,1,35.68-135.45Z"/><path class="cls-4" d="M453.52,299.75a126.7,126.7,0,0,1,27.94,177c-2,2.68-4.26,5.68-6.47,8a100.27,100.27,0,0,0-21.47-185Z"/><path class="cls-4" d="M346.32,299.75a126.7,126.7,0,0,0-27.94,177c2.05,2.68,4.26,5.68,6.47,8a100,100,0,0,1-40.41-135.93,98.91,98.91,0,0,1,61.88-49.1Z"/><path class="cls-5" d="M22.37,243.86h-20V223.5H29V209.92h6.63v27.31h6.79V209.92H49.2v27.31h6.63V209.92h6.64v33.94H29V230.44H9v6.79H22.37Zm-86.84-27.15H22.37v-6.79H-64.47Zm13.27,27.15h6.63v-6.63H-51.2Zm-13.27,0h0V223.5h33.32v13.73h20v-6.79H-24.37V223.5H-4.32v20.36H-37.78V230.44h-20v13.42Z"/><path class="cls-5" d="M155.93,243.86H135.88V223.5h26.84V209.92h6.78v27.31H176V209.92h6.79v27.31h6.63V209.92h6.78v33.94H162.72V230.44H142.67v6.79h13.26ZM69.1,216.71h86.83v-6.79H69.1Zm13.42,27.15h6.63v-6.63H82.52Zm-13.42,0h0V223.5h33.47v13.73h19.89v-6.79H109.2V223.5h20v20.36H95.78V230.44H75.88v13.42Z"/><path class="cls-5" d="M289.65,243.86h-20V223.5h26.83V209.92h6.64v27.31h6.63V209.92h6.63v27.31h6.79V209.92h6.63v33.94H296.43V230.44h-20.2v6.79h13.42Zm-86.83-27.15h86.83v-6.79H202.82Zm13.41,27.15h6.48v-6.63h-6.48Zm-13.41,0h0V223.5h33.46v13.73h20v-6.79H242.76V223.5H263v20.36H229.5V230.44H209.45v13.42Z"/><path class="cls-5" d="M423.37,243.86H403.32V223.5H430V209.92h6.63v27.31h6.79V209.92h6.63v27.31h6.63V209.92h6.79v33.94H430V230.44H410v6.79h13.42Zm-87-27.15h87v-6.79h-87ZM350,243.86h6.48v-6.63H350Zm-13.57,0h0V223.5h33.47v13.73h20v-6.79H376.48V223.5h20v20.36H363.22V230.44H343v13.42Z"/><path class="cls-5" d="M556.93,243.86H537V223.5h26.69V209.92h6.63v27.31H577V209.92h6.79v27.31h6.63V209.92H597v33.94H563.72V230.44h-19.9v6.79h13.11ZM470.1,216.71h86.83v-6.79H470.1Zm13.42,27.15h6.63v-6.63h-6.63Zm-13.42,0h0V223.5h33.31v13.73h20.21v-6.79H510.2V223.5h20.05v20.36H496.78V230.44h-20v13.42Z"/><path class="cls-5" d="M690.8,243.86H670.6V223.5h26.68V209.92h6.79v27.31h6.63V209.92h6.63v27.31h6.79V209.92h6.63v33.94H697.28V230.44h-19.9v6.79H690.8Zm-87-27.15h87v-6.79h-87Zm13.41,27.15h6.64v-6.63h-6.64Zm-13.41,0h0V223.5h33.31v13.73h20.2v-6.79H643.92V223.5H664v20.36H630.5V230.44h-20v13.42Z"/><path class="cls-5" d="M824.37,243.86h-20V223.5h26.83V209.92h6.48v27.31h6.94V209.92h6.48v27.31h6.63V209.92h6.79v33.94H831.15V230.44H811v6.79h13.42Zm-86.84-27.15h86.84v-6.79H737.53Zm13.27,27.15h6.63v-6.63H750.8Zm-13.27,0h0V223.5h33.32v13.73h20.2v-6.79H777.63V223.5h19.9v20.36H764.22V230.44H744.17v13.42Z"/><path class="cls-5" d="M2.32,264.7H62.47V251H2.32Zm-66.79,0H-4.32V251H-64.47Z"/><path class="cls-5" d="M135.88,264.7h60.3V251h-60.3Zm-66.78,0h60.15V251H69.1Z"/><path class="cls-5" d="M269.6,264.7h60.15V251H269.6Zm-66.78,0H263V251H202.82Z"/><path class="cls-5" d="M403.32,264.7h60.15V251H403.32Zm-66.94,0h60.15V251H336.38Z"/><path class="cls-5" d="M537,264.7h60V251H537Zm-66.93,0h60.15V251H470.1Z"/><path class="cls-5" d="M670.6,264.7h60.15V251H670.6Zm-66.78,0H664V251H603.82Z"/><path class="cls-5" d="M804.32,264.7h60.15V251H804.32Zm-66.79,0h60V251h-60Z"/><path class="cls-5" d="M22.37,590.08h-20V569.56H29V556.14h6.63v27.15h6.79V556.14H49.2v27.15h6.63V556.14h6.64v33.94H29V576.5H9v6.79H22.37Zm-86.84-27.15H22.37v-6.79H-64.47Zm13.27,27.15h6.63v-6.79H-51.2Zm-13.27,0h0V569.56h33.32v13.73h20V576.5H-24.37v-6.94H-4.32v20.52H-37.78V576.5h-20v13.58Z"/><path class="cls-5" d="M155.93,590.08H135.88V569.56h26.84V556.14h6.78v27.15H176V556.14h6.79v27.15h6.63V556.14h6.78v33.94H162.72V576.5H142.67v6.79h13.26ZM69.1,562.93h86.83v-6.79H69.1Zm13.42,27.15h6.63v-6.79H82.52Zm-13.42,0h0V569.56h33.47v13.73h19.89V576.5H109.2v-6.94h20v20.52H95.78V576.5H75.88v13.58Z"/><path class="cls-5" d="M289.65,590.08h-20V569.56h26.83V556.14h6.64v27.15h6.63V556.14h6.63v27.15h6.79V556.14h6.63v33.94H296.43V576.5h-20.2v6.79h13.42Zm-86.83-27.15h86.83v-6.79H202.82Zm13.41,27.15h6.48v-6.79h-6.48Zm-13.41,0h0V569.56h33.46v13.73h20V576.5H242.76v-6.94H263v20.52H229.5V576.5H209.45v13.58Z"/><path class="cls-5" d="M423.37,590.08H403.32V569.56H430V556.14h6.63v27.15h6.79V556.14h6.63v27.15h6.63V556.14h6.79v33.94H430V576.5H410v6.79h13.42Zm-87-27.15h87v-6.79h-87ZM350,590.08h6.48v-6.79H350Zm-13.57,0h0V569.56h33.47v13.73h20V576.5H376.48v-6.94h20v20.52H363.22V576.5H343v13.58Z"/><path class="cls-5" d="M556.93,590.08H537V569.56h26.69V556.14h6.63v27.15H577V556.14h6.79v27.15h6.63V556.14H597v33.94H563.72V576.5h-19.9v6.79h13.11ZM470.1,562.93h86.83v-6.79H470.1Zm13.42,27.15h6.63v-6.79h-6.63Zm-13.42,0h0V569.56h33.31v13.73h20.21V576.5H510.2v-6.94h20.05v20.52H496.78V576.5h-20v13.58Z"/><path class="cls-5" d="M690.8,590.08H670.6V569.56h26.68V556.14h6.79v27.15h6.63V556.14h6.63v27.15h6.79V556.14h6.63v33.94H697.28V576.5h-19.9v6.79H690.8Zm-87-27.15h87v-6.79h-87Zm13.41,27.15h6.64v-6.79h-6.64Zm-13.41,0h0V569.56h33.31v13.73h20.2V576.5H643.92v-6.94H664v20.52H630.5V576.5h-20v13.58Z"/><path class="cls-5" d="M824.37,590.08h-20V569.56h26.83V556.14h6.48v27.15h6.94V556.14h6.48v27.15h6.63V556.14h6.79v33.94H831.15V576.5H811v6.79h13.42Zm-86.84-27.15h86.84v-6.79H737.53Zm13.27,27.15h6.63v-6.79H750.8Zm-13.27,0h0V569.56h33.32v13.73h20.2V576.5H777.63v-6.94h19.9v20.52H764.22V576.5H744.17v13.58Z"/><path class="cls-5" d="M2.32,549.19H62.47V535.61H2.32Zm-66.79,0H-4.32V535.61H-64.47Z"/><path class="cls-5" d="M135.88,549.19h60.3V535.61h-60.3Zm-66.78,0h60.15V535.61H69.1Z"/><path class="cls-5" d="M269.6,549.19h60.15V535.61H269.6Zm-66.78,0H263V535.61H202.82Z"/><path class="cls-5" d="M403.32,549.19h60.15V535.61H403.32Zm-66.94,0h60.15V535.61H336.38Z"/><path class="cls-5" d="M537,549.19h60V535.61H537Zm-66.93,0h60.15V535.61H470.1Z"/><path class="cls-5" d="M670.6,549.19h60.15V535.61H670.6Zm-66.78,0H664V535.61H603.82Z"/><path class="cls-5" d="M804.32,549.19h60.15V535.61H804.32Zm-66.79,0h60V535.61h-60Z"/></svg>